<svg id="Layer_1" data-name="Layer 1" xmlns="http://www.w3.org/2000/svg" viewBox="0 0 255.666 118.843">
  <defs>
    <style>
      .cls-1 {
        fill: #fff;
      }
    </style>
  </defs>
  <title>3cc65be4-4c33-4c56-b9c6-6e8c4778bd2a</title>
  <g>
    <path class="cls-1" d="M8.557,38.341L0.69,7.333H4.922L8.6,23.021c0.92,3.865,1.748,7.729,2.3,10.719H11c0.506-3.083,1.472-6.763,2.53-10.765L17.666,7.333h4.187l3.772,15.733c0.874,3.681,1.7,7.361,2.162,10.627h0.092c0.644-3.4,1.518-6.855,2.484-10.719L34.458,7.333h4.094L29.766,38.341H25.579L21.668,22.193a93.327,93.327,0,0,1-2.024-10.121H19.552A96.959,96.959,0,0,1,17.16,22.193L12.744,38.341H8.557Z" transform="translate(0 0.162)"/>
    <path class="cls-1" d="M57.179,7.333V20.307h15V7.333h4.049V38.341H72.176V23.8h-15V38.341h-4V7.333h4Z" transform="translate(0 0.162)"/>
    <path class="cls-1" d="M98.945,28.588l-3.22,9.753H91.585L102.121,7.333h4.83l10.581,31.007h-4.278l-3.312-9.753h-11Zm10.168-3.128-3.037-8.925c-0.689-2.024-1.149-3.864-1.609-5.659h-0.092c-0.461,1.84-.967,3.727-1.564,5.613l-3.037,8.971h9.34Z" transform="translate(0 0.162)"/>
    <path class="cls-1" d="M135.194,10.738h-9.431v-3.4H148.72v3.4h-9.478v27.6h-4.048v-27.6Z" transform="translate(0 0.162)"/>
    <path class="cls-1" d="M187.449,7.333V38.341h-4V7.333h4Z" transform="translate(0 0.162)"/>
    <path class="cls-1" d="M204.652,33.464a14.189,14.189,0,0,0,7.178,2.024c4.094,0,6.486-2.162,6.486-5.291,0-2.9-1.656-4.554-5.843-6.165-5.061-1.794-8.188-4.417-8.188-8.787,0-4.831,4-8.419,10.029-8.419a14.093,14.093,0,0,1,6.854,1.518l-1.1,3.267a12.345,12.345,0,0,0-5.889-1.472c-4.232,0-5.843,2.53-5.843,4.646,0,2.9,1.886,4.325,6.165,5.98,5.244,2.024,7.912,4.555,7.912,9.109,0,4.785-3.541,8.925-10.856,8.925a16.027,16.027,0,0,1-7.913-1.978Z" transform="translate(0 0.162)"/>
    <path class="cls-1" d="M3.5,56.7a46.414,46.414,0,0,1,7.683-.6c3.957,0,6.855.92,8.695,2.577a8.334,8.334,0,0,1,2.714,6.487A9.128,9.128,0,0,1,20.2,71.791c-2.116,2.254-5.566,3.4-9.477,3.4a13.777,13.777,0,0,1-3.22-.276V87.341h-4V56.7Zm4,14.952a13.4,13.4,0,0,0,3.312.322c4.831,0,7.775-2.346,7.775-6.625,0-4.094-2.9-6.072-7.314-6.072A16.794,16.794,0,0,0,7.5,59.6V71.653Z" transform="translate(0 0.162)"/>
    <path class="cls-1" d="M42.735,56.333V87.341h-4V56.333h4Z" transform="translate(0 0.162)"/>
    <path class="cls-1" d="M84.091,85.96a28.872,28.872,0,0,1-9.522,1.7c-4.693,0-8.558-1.2-11.594-4.095-2.668-2.576-4.324-6.717-4.324-11.547,0.046-9.247,6.395-16.01,16.792-16.01a19.166,19.166,0,0,1,7.729,1.426L82.205,60.7A16.078,16.078,0,0,0,75.35,59.37c-7.545,0-12.467,4.692-12.467,12.467,0,7.867,4.739,12.514,11.961,12.514a13.05,13.05,0,0,0,5.336-.828V74.275h-6.3v-3.22H84.091V85.96Z" transform="translate(0 0.162)"/>
    <path class="cls-1" d="M117.025,72.8H104.973V83.982h13.434v3.358H100.971V56.333h16.745v3.358H104.973v9.8h12.053V72.8Z" transform="translate(0 0.162)"/>
    <path class="cls-1" d="M160.865,71.515c0,10.673-6.487,16.332-14.4,16.332-8.189,0-13.939-6.349-13.939-15.733,0-9.845,6.119-16.286,14.4-16.286C155.391,55.827,160.865,62.314,160.865,71.515Zm-24.062.506c0,6.625,3.589,12.56,9.892,12.56,6.348,0,9.937-5.843,9.937-12.881,0-6.165-3.22-12.605-9.892-12.605C140.116,59.094,136.8,65.212,136.8,72.021Z" transform="translate(0 0.162)"/>
    <path class="cls-1" d="M176.823,87.341V56.333h4.37l9.938,15.688A87.758,87.758,0,0,1,196.7,82.1l0.092-.046c-0.367-4.141-.46-7.913-0.46-12.744V56.333H200.1V87.341h-4.049l-9.845-15.734a98.286,98.286,0,0,1-5.8-10.351l-0.139.046c0.23,3.911.322,7.637,0.322,12.79v13.25h-3.772Z" transform="translate(0 0.162)"/>
  </g>
</svg>
