<svg id="Layer_1" data-name="Layer 1" xmlns="http://www.w3.org/2000/svg" viewBox="0 0 318.363 234.843">
  <defs>
    <style>
      .cls-1 {
        fill: #fff;
      }
    </style>
  </defs>
  <title>3e02a183-45f9-4733-ae3a-dc6b379a2356</title>
  <g>
    <path class="cls-1" d="M27.1,36.96a28.885,28.885,0,0,1-9.523,1.7c-4.693,0-8.557-1.2-11.594-4.095-2.668-2.576-4.324-6.717-4.324-11.547C1.7,13.774,8.051,7.011,18.448,7.011a19.166,19.166,0,0,1,7.729,1.426L25.211,11.7a16.078,16.078,0,0,0-6.855-1.334c-7.545,0-12.467,4.692-12.467,12.467,0,7.867,4.738,12.514,11.961,12.514a13.053,13.053,0,0,0,5.337-.828V25.275h-6.3v-3.22H27.1V36.96Z" transform="translate(0 0.162)"/>
    <path class="cls-1" d="M60.032,23.8H47.979V34.982H61.412v3.358H43.977V7.333H60.723v3.358H47.979v9.8H60.032V23.8Z" transform="translate(0 0.162)"/>
    <path class="cls-1" d="M84,10.738H74.564v-3.4H97.521v3.4H88.045v27.6H84v-27.6Z" transform="translate(0 0.162)"/>
    <path class="cls-1" d="M137.033,38.341V25.183l-9.8-17.85h4.555l4.371,8.557c1.2,2.346,2.115,4.232,3.082,6.4h0.092c0.875-2.024,1.933-4.049,3.129-6.4l4.462-8.557h4.555l-10.4,17.8v13.2h-4.049Z" transform="translate(0 0.162)"/>
    <path class="cls-1" d="M190.625,22.515c0,10.673-6.486,16.332-14.4,16.332-8.188,0-13.939-6.349-13.939-15.733,0-9.845,6.118-16.286,14.4-16.286C185.15,6.827,190.625,13.314,190.625,22.515Zm-24.061.506c0,6.625,3.588,12.56,9.891,12.56,6.35,0,9.938-5.843,9.938-12.881,0-6.165-3.221-12.605-9.891-12.605C169.877,10.094,166.564,16.212,166.564,23.021Z" transform="translate(0 0.162)"/>
    <path class="cls-1" d="M210.587,7.333V25.689c0,6.947,3.082,9.891,7.223,9.891,4.6,0,7.545-3.037,7.545-9.891V7.333H229.4v18.08c0,9.523-5.014,13.433-11.73,13.433-6.35,0-11.134-3.634-11.134-13.25V7.333h4.049Z" transform="translate(0 0.162)"/>
    <path class="cls-1" d="M247.109,7.748a41.691,41.691,0,0,1,7.684-.645c4.278,0,7.039.782,8.971,2.53a7.722,7.722,0,0,1,2.438,5.889,8.141,8.141,0,0,1-5.842,7.913v0.138c2.393,0.828,3.818,3.036,4.555,6.257,1.012,4.324,1.748,7.314,2.393,8.511h-4.141c-0.506-.874-1.2-3.542-2.07-7.407-0.92-4.279-2.576-5.889-6.211-6.027h-3.772V38.341h-4V7.748Zm4,14.124h4.095c4.277,0,6.992-2.346,6.992-5.889,0-4-2.9-5.751-7.131-5.8a16.458,16.458,0,0,0-3.956.368V21.871Z" transform="translate(0 0.162)"/>
    <path class="cls-1" d="M3.5,62.9a46.427,46.427,0,0,1,7.684-.6c3.956,0,6.854.92,8.694,2.577a8.336,8.336,0,0,1,2.714,6.487A9.13,9.13,0,0,1,20.2,77.991c-2.116,2.254-5.566,3.4-9.478,3.4a13.777,13.777,0,0,1-3.22-.276V93.541h-4V62.9Zm4,14.952a13.416,13.416,0,0,0,3.312.322c4.831,0,7.775-2.346,7.775-6.625,0-4.094-2.9-6.072-7.314-6.072A16.8,16.8,0,0,0,7.5,65.8V77.853Z" transform="translate(0 0.162)"/>
    <path class="cls-1" d="M42.734,62.533V93.541h-4V62.533h4Z" transform="translate(0 0.162)"/>
    <path class="cls-1" d="M84.091,92.16a28.885,28.885,0,0,1-9.522,1.7c-4.693,0-8.558-1.2-11.594-4.095-2.668-2.576-4.324-6.717-4.324-11.547,0.045-9.247,6.395-16.01,16.791-16.01a19.166,19.166,0,0,1,7.729,1.426L82.205,66.9a16.078,16.078,0,0,0-6.855-1.334c-7.545,0-12.467,4.692-12.467,12.467,0,7.867,4.738,12.514,11.961,12.514a13.05,13.05,0,0,0,5.336-.828V80.475h-6.3v-3.22H84.091V92.16Z" transform="translate(0 0.162)"/>
    <path class="cls-1" d="M117.025,79H104.973V90.182h13.434v3.358H100.971V62.533h16.745v3.358H104.973v9.8h12.053V79Z" transform="translate(0 0.162)"/>
    <path class="cls-1" d="M160.865,77.715c0,10.673-6.487,16.332-14.4,16.332-8.189,0-13.939-6.349-13.939-15.733,0-9.845,6.119-16.286,14.4-16.286C155.391,62.027,160.865,68.514,160.865,77.715Zm-24.062.506c0,6.625,3.589,12.56,9.892,12.56,6.348,0,9.937-5.843,9.937-12.881,0-6.165-3.22-12.605-9.892-12.605C140.116,65.293,136.8,71.412,136.8,78.221Z" transform="translate(0 0.162)"/>
    <path class="cls-1" d="M176.823,93.541V62.533h4.37l9.938,15.687A87.758,87.758,0,0,1,196.7,88.3l0.092-.046c-0.367-4.141-.46-7.913-0.46-12.744V62.533H200.1V93.541h-4.049l-9.845-15.734a98.286,98.286,0,0,1-5.8-10.351l-0.139.046c0.23,3.911.322,7.637,0.322,12.79v13.25h-3.772Z" transform="translate(0 0.162)"/>
    <path class="cls-1" d="M264.869,77.715c0,10.673-6.486,16.332-14.4,16.332-8.188,0-13.939-6.349-13.939-15.733,0-9.845,6.118-16.286,14.4-16.286C259.395,62.027,264.869,68.514,264.869,77.715Zm-24.061.506c0,6.625,3.588,12.56,9.891,12.56,6.35,0,9.937-5.843,9.937-12.881,0-6.165-3.221-12.605-9.891-12.605C244.121,65.293,240.809,71.412,240.809,78.221Z" transform="translate(0 0.162)"/>
    <path class="cls-1" d="M280.828,93.541V62.533h4.37l9.938,15.687A87.758,87.758,0,0,1,300.7,88.3l0.093-.046c-0.369-4.141-.461-7.913-0.461-12.744V62.533h3.772V93.541h-4.048l-9.846-15.734a98.475,98.475,0,0,1-5.8-10.351l-0.138.046c0.229,3.911.322,7.637,0.322,12.79v13.25h-3.772Z" transform="translate(0 0.162)"/>
  </g>
</svg>
