<svg id="Layer_1" data-name="Layer 1" xmlns="http://www.w3.org/2000/svg" viewBox="0 0 611.215 71.269">
  <defs>
    <style>
      .cls-1 {
        fill: #fff;
      }
    </style>
  </defs>
  <title>dfb7c4bf-f8fe-481e-96bd-c6f48e7332f8</title>
  <path class="cls-1" d="M22.362,24.715L34.915,6.408a10.867,10.867,0,0,1,9.285-5.1,10.755,10.755,0,0,1,7.977,3.269,10.772,10.772,0,0,1,1.569,13.862L42.369,34.915,56.231,52.569a9.228,9.228,0,0,1,2.092,6.146A11.386,11.386,0,0,1,47.077,70.092c-3.4,0-6.015-1.046-7.846-3.269l-17-21.185V57.408c0,3.4-.523,5.885-1.7,7.846a10.267,10.267,0,0,1-9.285,5.1c-3.662,0-6.538-1.177-8.5-3.662A15.722,15.722,0,0,1,0,57.277V13.862A13.462,13.462,0,0,1,2.877,4.969c1.962-2.485,4.838-3.662,8.369-3.662a11.1,11.1,0,0,1,8.5,3.662A8.211,8.211,0,0,1,22.1,9.023a22.051,22.051,0,0,1,.262,4.838V24.715m62.508-9.546V57.146a13.586,13.586,0,0,1-2.877,9.023,9.949,9.949,0,0,1-8.369,3.923,10.557,10.557,0,0,1-8.238-3.662c-1.831-1.962-2.877-5.1-2.877-9.285V15.169c0-4.708.915-8.108,2.877-10.2a10.8,10.8,0,0,1,8.238-3.662,10.5,10.5,0,0,1,8.238,3.531C83.954,7.062,84.869,10.462,84.869,15.169ZM125.146,0A35.838,35.838,0,0,1,147.9,8.238c5.362,4.315,8.108,8.892,8.108,13.6a10.723,10.723,0,0,1-4.969,9.285,10.3,10.3,0,0,1-6.146,1.831,10.706,10.706,0,0,1-5.231-1.308,46.856,46.856,0,0,1-5.1-4.969,12.481,12.481,0,0,0-9.546-4.185,12.727,12.727,0,0,0-9.285,3.792,13.584,13.584,0,0,0,0,18.831,12.235,12.235,0,0,0,9.285,3.792,13.423,13.423,0,0,0,8.5-3.138c1.569-1.569,3.269-3.138,4.838-4.708a9.89,9.89,0,0,1,6.538-2.223,11.611,11.611,0,0,1,7.977,3.138,10.309,10.309,0,0,1,3.4,7.715c0,4.185-2.485,8.369-7.323,12.554a34.432,34.432,0,0,1-23.669,8.892,36.217,36.217,0,0,1-15.692-3.531A35.743,35.743,0,0,1,94.808,54.531a34.51,34.51,0,0,1-5.492-18.962A35.433,35.433,0,0,1,125.146,0Zm57.277,24.715L194.977,6.408a10.867,10.867,0,0,1,9.285-5.1,10.755,10.755,0,0,1,7.977,3.269,10.772,10.772,0,0,1,1.569,13.862L202.431,34.915l13.862,17.654a9.228,9.228,0,0,1,2.092,6.146,10.755,10.755,0,0,1-3.269,7.977,10.877,10.877,0,0,1-7.977,3.4c-3.4,0-6.015-1.046-7.846-3.269l-17-21.185V57.408c0,3.4-.523,5.885-1.7,7.846a10.267,10.267,0,0,1-9.285,5.1c-3.662,0-6.538-1.177-8.5-3.662a14.062,14.062,0,0,1-2.877-9.023V13.862a13.462,13.462,0,0,1,2.877-8.892c1.962-2.485,4.838-3.662,8.369-3.662a11.1,11.1,0,0,1,8.5,3.662,8.211,8.211,0,0,1,2.354,4.054,22.051,22.051,0,0,1,.262,4.838l0.131,10.854h0Zm49.954,19.223c2.485,0,5.1,1.046,7.977,3.269,3.531,2.746,5.885,4.054,7.192,4.054,1.962,0,2.877-1.046,2.877-3.008a3.245,3.245,0,0,0-1.7-2.746,94.084,94.084,0,0,0-10.069-3.792c-9.938-3.531-14.908-9.938-14.908-19.485q0-10.788,7.846-16.869C236.169,1.7,241.923,0,248.723,0a27.92,27.92,0,0,1,15.3,4.185c4.315,2.746,6.538,6.408,6.538,10.854a9.392,9.392,0,0,1-2.485,6.669,8.2,8.2,0,0,1-6.408,2.615c-2.746,0-5.754-1.308-9.154-3.923-2.092-1.569-3.662-2.485-4.708-2.485-1.831,0-2.746.915-2.746,2.615s2.223,3.269,6.8,4.577c6.277,1.962,10.985,4.315,14.385,7.192,4.577,3.792,6.8,9.023,6.8,15.823,0,7.454-2.485,13.208-7.585,17.392-4.708,3.923-10.854,5.754-18.438,5.754s-13.862-1.962-18.831-6.015c-3.923-3.269-6.015-6.931-6.015-11.246a9.659,9.659,0,0,1,2.877-7.192A10.737,10.737,0,0,1,232.377,43.938Zm59.762-21.315h-5.885a12.562,12.562,0,0,1-8.108-2.615,9.725,9.725,0,0,1-3.4-7.715A10.293,10.293,0,0,1,276.315,6.8,8.976,8.976,0,0,1,280.5,3.008q2.55-1.177,12.162-1.177h22.492c5.492,0,9.154.392,10.723,1.046a8.681,8.681,0,0,1,4.315,3.792,11.258,11.258,0,0,1,1.7,5.623,10.22,10.22,0,0,1-3.662,7.977c-1.7,1.569-4.577,2.485-8.631,2.485h-5.1V56.492c0,3.662-.654,6.538-1.831,8.5a10.2,10.2,0,0,1-9.154,5.1,10.837,10.837,0,0,1-9.285-4.577c-1.308-1.962-2.092-4.838-2.092-8.762V22.623Zm54.269,38.185a18.18,18.18,0,0,1-3.269,5.623,11.182,11.182,0,0,1-17.392-1.046,10.926,10.926,0,0,1-1.962-6.408,13.914,13.914,0,0,1,1.438-5.885L346.408,7.977a10.515,10.515,0,0,1,10.331-6.538c4.838,0,8.369,2.223,10.462,6.8l21.446,45.508a11.963,11.963,0,0,1,1.308,5.362,10.976,10.976,0,0,1-2.615,7.062,10.535,10.535,0,0,1-8.631,4.054,10.078,10.078,0,0,1-7.192-2.746,21.626,21.626,0,0,1-4.315-6.538H346.408V60.808h0Zm92.846-17.392,5.231,8.369a13.623,13.623,0,0,1,2.223,7.192,10.271,10.271,0,0,1-3.269,7.846,11.16,11.16,0,0,1-7.977,3.138,10.061,10.061,0,0,1-9.154-5.1l-9.285-15.3v9.154a11.16,11.16,0,0,1-3.138,7.977,11.165,11.165,0,0,1-16.608-.915c-1.831-2.354-2.615-5.623-2.615-9.546V14.646c0-8.631,4.577-12.815,13.862-12.815h14.254a22.021,22.021,0,0,1,12.946,4.054,23.394,23.394,0,0,1,8.762,10.462,24.081,24.081,0,0,1,2.092,9.808C446.577,32.3,444.092,38.054,439.254,43.415ZM465.8,22.623h-5.885a12.562,12.562,0,0,1-8.108-2.615,9.725,9.725,0,0,1-3.4-7.715A10.293,10.293,0,0,1,449.977,6.8a8.976,8.976,0,0,1,4.185-3.792q2.55-1.177,12.162-1.177h22.492c5.492,0,9.154.392,10.723,1.046a8.681,8.681,0,0,1,4.315,3.792,11.258,11.258,0,0,1,1.7,5.623,10.22,10.22,0,0,1-3.662,7.977c-1.7,1.569-4.577,2.485-8.631,2.485h-5.1V56.492c0,3.662-.654,6.538-1.831,8.5a10.2,10.2,0,0,1-9.154,5.1,10.837,10.837,0,0,1-9.285-4.577c-1.308-1.962-2.092-4.838-2.092-8.762V22.623Zm66.169,26.023h10.2c4.185,0,7.323.915,9.415,2.615a10.256,10.256,0,0,1,3.662,7.977,9.684,9.684,0,0,1-3.662,7.977c-1.831,1.569-4.969,2.354-9.285,2.354H524.908c-4.054,0-6.931-.262-8.5-0.915a9.582,9.582,0,0,1-5.885-6.015c-0.654-1.831-.915-4.708-0.915-8.762V17a53.775,53.775,0,0,1,.262-6.146,10.767,10.767,0,0,1,2.615-5.492A11.353,11.353,0,0,1,518.5,2.092a44.882,44.882,0,0,1,7.062-.262H538.9a62.5,62.5,0,0,1,6.408.131,11.735,11.735,0,0,1,5.885,2.092,9.509,9.509,0,0,1,4.054,7.977,10.133,10.133,0,0,1-3.531,8.238c-2.092,1.7-4.969,2.485-8.631,2.485H532.1v4.577h8.762a9.461,9.461,0,0,1,6.408,2.092,7.07,7.07,0,0,1,2.615,6.015c0,5.362-3.269,8.108-9.808,8.108H532.1v5.1h-0.131Zm71.792-5.231,5.231,8.369a13.623,13.623,0,0,1,2.223,7.192,10.271,10.271,0,0,1-3.269,7.846,11.16,11.16,0,0,1-7.977,3.138,10.061,10.061,0,0,1-9.154-5.1l-9.285-15.3v9.154a11.16,11.16,0,0,1-3.138,7.977,11.165,11.165,0,0,1-16.608-.915c-1.831-2.354-2.615-5.623-2.615-9.546V14.646c0-8.631,4.577-12.815,13.862-12.815h14.254a22.021,22.021,0,0,1,12.946,4.054,23.394,23.394,0,0,1,8.762,10.462,24.081,24.081,0,0,1,2.092,9.808C611.085,32.3,608.6,38.054,603.762,43.415Z"/>
</svg>
