<svg id="Layer_1" data-name="Layer 1" xmlns="http://www.w3.org/2000/svg" viewBox="0 0 259.646 70.5">
  <defs>
    <style>
      .cls-1 {
        fill: #fff;
        opacity: 0.9;
      }
    </style>
  </defs>
  <title>Name</title>
  <g>
    <path class="cls-1" d="M176.674,135.064c0,9.2-16.351,18.6-23.152,22.5a3.3,3.3,0,0,1-3.25,2.6,2.235,2.235,0,0,1-1.6-.55c-.1,0-.25.05-.35.05-1.15,0-1.65-1.3-1.65-2.65a4.74,4.74,0,0,1,.55-2.3c-.1-1.25-.55-7.2-.55-11.5,0-.7,0-1.4.05-2,.15-2.95.5-8.5.7-11.551l-1.65.55a1.094,1.094,0,0,1-.4.05,3.534,3.534,0,0,1-3.3-3.15,2.243,2.243,0,0,1,1.3-2c2-1.25,7.25-2.3,11.7-2.4h.7c10.4,0,20.851,4.8,20.9,12.3Zm-20.251-7.25a16.866,16.866,0,0,0-2.9.2,139.411,139.411,0,0,0-1.35,16.551,50.55,50.55,0,0,0,.5,7.25c4.851-2.7,16.5-10.251,18.1-15.751a5.631,5.631,0,0,0,.15-1.2C170.923,130.064,162.272,127.814,156.422,127.814Z" transform="translate(-142.071 -115.266)"/>
    <path class="cls-1" d="M194.273,145.465c-.35,2.65-.55,7.451-2.2,20.3-.6,4.8-1,6.9-1.45,10a4.139,4.139,0,0,1,.95,2.5c0,1.75-1.7,2.75-3.351,2.75a2.76,2.76,0,0,1-3-2.6.638.638,0,0,1-.05-.3,6.022,6.022,0,0,1,.95-2.95c.45-.7.7-7.8,1.3-14.8.5-5.45.65-8.1,1-11.6-3,3.2-7.05,7.8-9.05,7.8-2.1-.05-2.7-2.6-2.7-5.6a80.111,80.111,0,0,1,1-9.551c.45-4.3,1.8-5.65,3.15-5.65a3.463,3.463,0,0,1,3,2.75v.05c0,1.2-2.05,9.15-2.05,10.351a.184.184,0,0,0,.05.15c.65,0,5.551-6.85,6.5-8.05.45-.55,1-2.7,2.85-2.7a3.205,3.205,0,0,1,1.1.2c1.15.45,2.05,3.3,2.05,5.85C194.323,144.715,194.273,145.115,194.273,145.465Z" transform="translate(-142.071 -115.266)"/>
    <path class="cls-1" d="M212.972,159.716a3.06,3.06,0,0,1-1.95.9c-2.35,0-2.9-4.75-3.1-6.65-.4-3.3-.35-10.2-.45-10.2v.05a88.249,88.249,0,0,0-4.85,12,5.231,5.231,0,0,1-1.5,2.55,6.16,6.16,0,0,1-1.9.4c-1.9,0-2.3-1.8-2.3-3.65v-1.1c.45-5.65.25-10.5,1-15.651.2-1.6,1.15-2.2,2.2-2.2a3.951,3.951,0,0,1,2.75,1.25,3.137,3.137,0,0,1,.45,1.95c0,.95-.15,2-.2,2.65,2.9-4.3,4.95-6,6.45-6,2.8,0,3.4,6.351,3.4,12.851v.5c0,.75-.05,2.3-.05,3.65a11.61,11.61,0,0,0,.1,2.1,6.168,6.168,0,0,1,.9,2.75A2.269,2.269,0,0,1,212.972,159.716Z" transform="translate(-142.071 -115.266)"/>
    <path class="cls-1" d="M237.973,150.865c-.45.3-1.5,1.2-2,1.5-3,2.25-7.6,5.65-11.7,5.65a6.682,6.682,0,0,1-2.6-.5,10.5,10.5,0,0,1-5.9-9.3,7.367,7.367,0,0,1,.2-1.8c1.45-6.55,8.7-9.451,13.751-9.451,2.8,0,4.9.9,4.9,2.6a3.548,3.548,0,0,1-.95,2.25,18.028,18.028,0,0,1-12.4,6.351v.3c0,2,1.55,4.6,3.55,4.6h.1c2.95-.1,8.4-4.8,9.15-5.55.65-1.15,1.5-2.25,2.75-2.25a3.141,3.141,0,0,1,2.851,2.75A3.752,3.752,0,0,1,237.973,150.865Zm-8.9-9.851a11.866,11.866,0,0,0-3.4.85,10.086,10.086,0,0,0-2.85,1.75,14.115,14.115,0,0,0,6.3-2.6Z" transform="translate(-142.071 -115.266)"/>
    <path class="cls-1" d="M247.221,161.866h-.25c-1.2,0-2.95-.95-2.95-2.5a2.665,2.665,0,0,1,.6-1.6c.55-.85,6.15-2.85,6.15-3.25-.05-1-9.551-1.35-10.2-7.951a5.454,5.454,0,0,1-.05-.9c0-5.5,4.9-9.751,8.55-12.8a3.794,3.794,0,0,1,2.5-.85c2.15,0,4.3,1.45,4.5,3,0,.15.05.35.05.55a1.81,1.81,0,0,1-2,2,3.747,3.747,0,0,1-1.8-.5c-1.2.2-3.3,2.8-4.2,3.85a8.9,8.9,0,0,0-2.4,4.75v.15c.7,3.95,9.75,2.2,10.55,8.6v.15C256.271,157.216,249.321,161.616,247.221,161.866Z" transform="translate(-142.071 -115.266)"/>
    <path class="cls-1" d="M291.872,135.064c0,9.2-16.351,18.6-23.151,22.5a3.3,3.3,0,0,1-3.25,2.6,2.235,2.235,0,0,1-1.6-.55c-.1,0-.25.05-.35.05-1.15,0-1.65-1.3-1.65-2.65a4.74,4.74,0,0,1,.55-2.3c-.1-1.25-.55-7.2-.55-11.5,0-.7,0-1.4.05-2,.15-2.95.5-8.5.7-11.551l-1.65.55a1.094,1.094,0,0,1-.4.05,3.534,3.534,0,0,1-3.3-3.15,2.243,2.243,0,0,1,1.3-2c2-1.25,7.25-2.3,11.7-2.4h.7c10.4,0,20.851,4.8,20.9,12.3Zm-20.251-7.25a16.866,16.866,0,0,0-2.9.2,139.411,139.411,0,0,0-1.35,16.551,50.48,50.48,0,0,0,.5,7.25c4.85-2.7,16.5-10.251,18.1-15.751a5.631,5.631,0,0,0,.15-1.2C286.122,130.064,277.472,127.814,271.621,127.814Z" transform="translate(-142.071 -115.266)"/>
    <path class="cls-1" d="M311.321,150.865c-.45.3-1.5,1.2-2,1.5-3,2.25-7.6,5.65-11.7,5.65a6.682,6.682,0,0,1-2.6-.5,10.5,10.5,0,0,1-5.9-9.3,7.367,7.367,0,0,1,.2-1.8c1.45-6.55,8.7-9.451,13.751-9.451,2.8,0,4.9.9,4.9,2.6a3.548,3.548,0,0,1-.95,2.25,18.028,18.028,0,0,1-12.4,6.351v.3c0,2,1.55,4.6,3.55,4.6h.1c2.95-.1,8.4-4.8,9.15-5.55.65-1.15,1.5-2.25,2.75-2.25a3.141,3.141,0,0,1,2.851,2.75A3.752,3.752,0,0,1,311.321,150.865Zm-8.9-9.851a11.866,11.866,0,0,0-3.4.85,10.086,10.086,0,0,0-2.85,1.75,14.115,14.115,0,0,0,6.3-2.6Z" transform="translate(-142.071 -115.266)"/>
    <path class="cls-1" d="M320.569,161.866h-.25c-1.2,0-2.95-.95-2.95-2.5a2.665,2.665,0,0,1,.6-1.6c.55-.85,6.15-2.85,6.15-3.25-.05-1-9.551-1.35-10.2-7.951a5.454,5.454,0,0,1-.05-.9c0-5.5,4.9-9.751,8.55-12.8a3.794,3.794,0,0,1,2.5-.85c2.15,0,4.3,1.45,4.5,3,0,.15.05.35.05.55a1.81,1.81,0,0,1-2,2,3.747,3.747,0,0,1-1.8-.5c-1.2.2-3.3,2.8-4.2,3.85a8.9,8.9,0,0,0-2.4,4.75v.15c.7,3.95,9.75,2.2,10.551,8.6v.15C329.62,157.216,322.669,161.616,320.569,161.866Z" transform="translate(-142.071 -115.266)"/>
    <path class="cls-1" d="M340.569,124.213a4.405,4.405,0,0,1-.6,1.65,8.568,8.568,0,0,0-1.2,3.55,2.638,2.638,0,0,1-2.55,2.25c-1.15,0-2.25-.8-2.25-2.7a5.09,5.09,0,0,1,.25-1.65c.3-1.25.9-2.55,1.15-3.4.65-2,1.7-2.75,2.7-2.75a2.75,2.75,0,0,1,2.5,2.8Zm-.1,15.451c-.15,1.3-1,9.351-1.15,11.151v.9a4.587,4.587,0,0,0,.4,1.85,3.893,3.893,0,0,1,.2,1.05,2.844,2.844,0,0,1-2.7,2.95,3.1,3.1,0,0,1-1.95-.75c-.8-.65-1.1-2.3-1.1-4.4v-.65c.05-2.2.3-5.25.5-9.1.1-2.05-.25-6.45,2.8-6.6h.15a3,3,0,0,1,2.85,3.2Z" transform="translate(-142.071 -115.266)"/>
    <path class="cls-1" d="M362.369,147.365c-.3,4.75-.75,9.55-1.35,14.25-1.1,8.551-3.7,21.852-17.5,21.852-1.35,0-4.7-.85-4.7-3.2,0-2.3,2.45-2.8,3.45-2.8a5.055,5.055,0,0,1,1.85.4,5.545,5.545,0,0,0,.65.25.8.8,0,0,0,.4.15c8.8,0,10.2-15.051,10.75-21.452a8.894,8.894,0,0,1-5.2,1.85c-4.45,0-6.451-3.35-6.451-6.75,0-5.35,6.7-15.7,13.751-15.7a3.821,3.821,0,0,1,1.35.3,1.884,1.884,0,0,1,.5-.05c2.65,0,2.85,1.75,2.85,3.2C362.719,142.265,362.519,144.815,362.369,147.365Zm-12.6,4.3c0,1.2.65,1.75,1.25,1.75,2.25,0,4.45-3.9,5.2-5.5a22.706,22.706,0,0,0,.85-5.8C353.668,142.865,349.768,148.965,349.768,151.665Z" transform="translate(-142.071 -115.266)"/>
    <path class="cls-1" d="M381.818,159.716a3.06,3.06,0,0,1-1.95.9c-2.35,0-2.9-4.75-3.1-6.65-.4-3.3-.35-10.2-.45-10.2v.05a88.249,88.249,0,0,0-4.85,12,5.231,5.231,0,0,1-1.5,2.55,6.16,6.16,0,0,1-1.9.4c-1.9,0-2.3-1.8-2.3-3.65v-1.1c.45-5.65.25-10.5,1-15.651.2-1.6,1.15-2.2,2.2-2.2a3.951,3.951,0,0,1,2.75,1.25,3.137,3.137,0,0,1,.45,1.95c0,.95-.15,2-.2,2.65,2.9-4.3,4.95-6,6.45-6,2.8,0,3.4,6.351,3.4,12.851v.5c0,.75-.05,2.3-.05,3.65a11.61,11.61,0,0,0,.1,2.1,6.168,6.168,0,0,1,.9,2.75A2.269,2.269,0,0,1,381.818,159.716Z" transform="translate(-142.071 -115.266)"/>
    <path class="cls-1" d="M391.468,161.866h-.25c-1.2,0-2.95-.95-2.95-2.5a2.665,2.665,0,0,1,.6-1.6c.55-.85,6.15-2.85,6.15-3.25-.05-1-9.551-1.35-10.2-7.951a5.454,5.454,0,0,1-.05-.9c0-5.5,4.9-9.751,8.55-12.8a3.794,3.794,0,0,1,2.5-.85c2.15,0,4.3,1.45,4.5,3,0,.15.05.35.05.55a1.81,1.81,0,0,1-2,2,3.747,3.747,0,0,1-1.8-.5c-1.2.2-3.3,2.8-4.2,3.85a8.9,8.9,0,0,0-2.4,4.75v.15c.7,3.95,9.75,2.2,10.551,8.6v.15C400.519,157.216,393.568,161.616,391.468,161.866Z" transform="translate(-142.071 -115.266)"/>
  </g>
</svg>
